<svg width="140" height="260" viewBox="0 0 140 260" fill="none" xmlns="http://www.w3.org/2000/svg">
<circle cx="10" cy="10" r="10" fill="#4285F4"/>
<circle cx="10" cy="50" r="10" fill="#4285F4"/>
<circle cx="10" cy="90" r="10" fill="#4285F4"/>
<circle cx="10" cy="130" r="10" fill="#4285F4"/>
<circle cx="10" cy="170" r="10" fill="#4285F4"/>
<circle cx="10" cy="210" r="10" fill="#4285F4"/>
<circle cx="10" cy="250" r="10" fill="#4285F4"/>
<circle cx="50" cy="10" r="10" fill="#4285F4"/>
<circle cx="50" cy="50" r="10" fill="#4285F4"/>
<circle cx="50" cy="90" r="10" fill="#4285F4"/>
<circle cx="50" cy="130" r="10" fill="#4285F4"/>
<circle cx="50" cy="170" r="10" fill="#4285F4"/>
<circle cx="50" cy="210" r="10" fill="#4285F4"/>
<circle cx="50" cy="250" r="10" fill="#4285F4"/>
<circle cx="90" cy="10" r="10" fill="#4285F4"/>
<circle cx="90" cy="50" r="10" fill="#4285F4"/>
<circle cx="90" cy="90" r="10" fill="#4285F4"/>
<circle cx="90" cy="130" r="10" fill="#4285F4"/>
<circle cx="90" cy="170" r="10" fill="#4285F4"/>
<circle cx="90" cy="210" r="10" fill="#4285F4"/>
<circle cx="90" cy="250" r="10" fill="#4285F4"/>
<circle cx="130" cy="10" r="10" fill="#4285F4"/>
<circle cx="130" cy="50" r="10" fill="#4285F4"/>
<circle cx="130" cy="90" r="10" fill="#4285F4"/>
<circle cx="130" cy="130" r="10" fill="#4285F4"/>
<circle cx="130" cy="170" r="10" fill="#4285F4"/>
<circle cx="130" cy="210" r="10" fill="#4285F4"/>
<circle cx="130" cy="250" r="10" fill="#4285F4"/>
</svg>
